<svg width="12" height="16" viewBox="0 0 12 16" fill="none" xmlns="http://www.w3.org/2000/svg">
<g clip-path="url(#clip0_1242_655)">
<path d="M5.46865 15.7812C5.7624 16.0749 6.2374 16.0749 6.52803 15.7812L10.7812 11.5312C11.0749 11.2374 11.0749 10.7624 10.7812 10.4718C10.4874 10.1812 10.0124 10.178 9.72178 10.4718L6.75303 13.4405L6.75303 0.749902C6.75303 0.334278 6.41865 -9.76754e-05 6.00303 -9.77118e-05C5.5874 -9.77481e-05 5.25303 0.334278 5.25303 0.749902L5.25303 13.4405L2.28428 10.4718C1.99053 10.178 1.51553 10.178 1.2249 10.4718C0.934279 10.7655 0.931154 11.2405 1.2249 11.5312L5.46865 15.7812Z" fill="currentColor"/>
</g>
<defs>
<clipPath id="clip0_1242_655">
<rect width="12" height="16" fill="white" transform="translate(12 16) rotate(-180)"/>
</clipPath>
</defs>
</svg>
