<svg width="12" height="16" viewBox="0 0 12 16" fill="none" xmlns="http://www.w3.org/2000/svg">
<g clip-path="url(#clip0_1242_634)">
<path d="M6.53135 0.218847C6.2376 -0.0749033 5.7626 -0.0749032 5.47197 0.218847L1.21885 4.46885C0.925098 4.7626 0.925099 5.2376 1.21885 5.52822C1.5126 5.81885 1.9876 5.82197 2.27822 5.52822L5.24697 2.55947L5.24698 15.2501C5.24698 15.6657 5.58135 16.0001 5.99698 16.0001C6.4126 16.0001 6.74698 15.6657 6.74698 15.2501L6.74697 2.55947L9.71572 5.52822C10.0095 5.82197 10.4845 5.82197 10.7751 5.52822C11.0657 5.23447 11.0688 4.75947 10.7751 4.46885L6.53135 0.218847Z" fill="#7ED890"/>
</g>
<defs>
<clipPath id="clip0_1242_634">
<rect width="12" height="16" fill="white"/>
</clipPath>
</defs>
</svg>
