<svg width="194" height="35" viewBox="0 0 194 35" fill="none" xmlns="http://www.w3.org/2000/svg">
<path fill-rule="evenodd" clip-rule="evenodd" d="M0 7H6.01795V25.0012H0V7ZM8.02734 7H14.0035V31H8.02734V7Z" fill="white"/>
<path d="M77.1562 19.3896C77.1562 17.3224 77.7835 15.6446 79.0082 14.3862C80.2628 13.0979 81.8758 12.4688 83.8472 12.4688C85.7589 12.4688 87.2226 13.038 88.2382 14.1765C89.2836 15.285 89.8512 16.6333 90.0005 18.1912L87.82 18.341C87.6109 16.064 86.207 14.4761 83.8173 14.4761C81.3978 14.4761 79.6952 16.3936 79.6952 19.3896C79.6952 22.3857 81.3978 24.3032 83.8173 24.3032C86.207 24.3032 87.6109 22.6254 87.82 20.3484L90.0005 20.5581C89.8512 22.146 89.2836 23.4942 88.2382 24.6028C87.2226 25.7113 85.7589 26.2806 83.8472 26.2806C81.8758 26.2806 80.2628 25.6514 79.0082 24.393C77.7835 23.1347 77.1562 21.4569 77.1562 19.3896Z" fill="white"/>
<path d="M72.0703 9.86219V7.0459H74.6392V9.86219H72.0703ZM72.1301 12.8283H74.6093V25.921H72.1301V12.8283Z" fill="white"/>
<path d="M58.8257 23.1944L58.2881 25.9209H56.4062V7.04572H58.8855V15.5845C59.453 13.9966 61.1556 12.4686 63.5751 12.4686C65.4868 12.4686 66.9505 13.1577 67.9959 14.5059C69.0414 15.8541 69.5492 17.472 69.5492 19.3895C69.5492 21.3069 69.0414 22.9248 67.9959 24.273C66.9505 25.6212 65.4868 26.2804 63.5453 26.2804C61.1556 26.2804 59.4232 24.8423 58.8257 23.1944ZM58.8257 19V19.749C58.8257 22.6252 60.6478 24.303 63.0076 24.303C65.5466 24.303 66.9804 22.3855 66.9804 19.3895C66.9804 16.3934 65.5466 14.4759 63.0076 14.4759C60.6478 14.4759 58.8257 16.1537 58.8257 19Z" fill="white"/>
<path d="M50.5172 20.3482V12.8281H52.9964V25.9209H50.5172V23.6139C49.8899 25.1719 48.1873 26.2804 46.2457 26.2804C44.5431 26.2804 43.3483 25.7711 42.6314 24.7824C41.9444 23.7637 41.5859 22.5054 41.5859 20.9774V12.8281H44.0652V20.7377C44.0652 22.8949 45.0509 24.333 47.0821 24.333C49.0237 24.333 50.5172 22.7451 50.5172 20.3482Z" fill="white"/>
<path d="M35.8668 30.9542V23.1944C35.2694 24.7823 33.5967 26.2804 31.1772 26.2804C29.2356 26.2804 27.772 25.6212 26.7265 24.273C25.7109 22.9248 25.2031 21.3069 25.2031 19.3895C25.2031 17.472 25.7109 15.8541 26.7265 14.5059C27.772 13.1577 29.2356 12.4686 31.1772 12.4686C33.5967 12.4686 35.2694 13.9966 35.8668 15.5845V12.8281H38.3461V30.9542H35.8668ZM35.8967 19.749V19C35.8967 16.1537 34.1045 14.4759 31.7447 14.4759C29.2058 14.4759 27.7421 16.3934 27.7421 19.3895C27.7421 22.3855 29.2058 24.303 31.7447 24.303C34.1045 24.303 35.8967 22.6252 35.8967 19.749Z" fill="white"/>
<path d="M103.462 26.416C101.261 26.416 99.614 25.7747 98.522 24.492C97.43 23.2093 96.884 21.5367 96.884 19.474C96.884 18.174 97.1267 17.004 97.612 15.964C98.0973 14.924 98.834 14.1007 99.822 13.494C100.81 12.8873 102.023 12.584 103.462 12.584C104.797 12.584 105.932 12.8787 106.868 13.468C107.821 14.04 108.532 14.8287 109 15.834C109.485 16.8393 109.728 17.9747 109.728 19.24C109.728 19.6733 109.711 20.0027 109.676 20.228H99.432C99.536 21.7707 99.9433 22.8713 100.654 23.53C101.365 24.1713 102.327 24.492 103.54 24.492C105.62 24.492 106.877 23.686 107.31 22.074H109.702C109.546 23.218 108.974 24.232 107.986 25.116C107.015 25.9827 105.507 26.416 103.462 26.416ZM107.232 18.33C107.111 15.782 105.863 14.508 103.488 14.508C102.309 14.508 101.382 14.8027 100.706 15.392C100.03 15.964 99.614 16.9433 99.458 18.33H107.232ZM115.568 19.5L110.576 13H113.67L117.154 17.862L120.638 13H123.55L118.636 19.396L123.81 26H120.716L117.076 21.034L113.41 26H110.498L115.568 19.5ZM133.008 26.416C130.72 26.416 129.116 25.532 128.198 23.764V31.2H125.598V13H128.198V15.236C129.116 13.468 130.72 12.584 133.008 12.584C135.001 12.584 136.509 13.234 137.532 14.534C138.554 15.8167 139.066 17.472 139.066 19.5C139.066 21.528 138.554 23.192 137.532 24.492C136.509 25.7747 135.001 26.416 133.008 26.416ZM128.198 19.5C128.198 22.724 129.619 24.336 132.462 24.336C133.883 24.336 134.897 23.946 135.504 23.166C136.128 22.3687 136.44 21.1467 136.44 19.5C136.44 17.8533 136.128 16.64 135.504 15.86C134.897 15.0627 133.883 14.664 132.462 14.664C129.619 14.664 128.198 16.276 128.198 19.5ZM141.303 7.8H143.903V26H141.303V7.8ZM152.801 26.416C151.345 26.416 150.114 26.1127 149.109 25.506C148.104 24.8993 147.35 24.076 146.847 23.036C146.344 21.9787 146.093 20.7913 146.093 19.474C146.093 18.174 146.344 17.004 146.847 15.964C147.35 14.924 148.104 14.1007 149.109 13.494C150.114 12.8873 151.345 12.584 152.801 12.584C154.257 12.584 155.488 12.8873 156.493 13.494C157.498 14.1007 158.252 14.9327 158.755 15.99C159.258 17.03 159.509 18.1913 159.509 19.474C159.509 20.774 159.258 21.9527 158.755 23.01C158.252 24.05 157.498 24.882 156.493 25.506C155.488 26.1127 154.257 26.416 152.801 26.416ZM148.719 19.5C148.719 21.216 149.04 22.4553 149.681 23.218C150.34 23.9633 151.38 24.336 152.801 24.336C154.222 24.336 155.254 23.9633 155.895 23.218C156.554 22.4553 156.883 21.216 156.883 19.5C156.883 17.784 156.554 16.5533 155.895 15.808C155.254 15.0453 154.222 14.664 152.801 14.664C151.38 14.664 150.34 15.0453 149.681 15.808C149.04 16.5533 148.719 17.784 148.719 19.5ZM161.667 13H164.241V16.146C165.142 13.91 166.676 12.792 168.843 12.792H169.233V15.314H168.583C166.936 15.314 165.801 15.7907 165.177 16.744C164.57 17.68 164.267 19.11 164.267 21.034V26H161.667V13ZM176.565 26.416C174.363 26.416 172.717 25.7747 171.625 24.492C170.533 23.2093 169.987 21.5367 169.987 19.474C169.987 18.174 170.229 17.004 170.715 15.964C171.2 14.924 171.937 14.1007 172.925 13.494C173.913 12.8873 175.126 12.584 176.565 12.584C177.899 12.584 179.035 12.8787 179.971 13.468C180.924 14.04 181.635 14.8287 182.103 15.834C182.588 16.8393 182.831 17.9747 182.831 19.24C182.831 19.6733 182.813 20.0027 182.779 20.228H172.535C172.639 21.7707 173.046 22.8713 173.757 23.53C174.467 24.1713 175.429 24.492 176.643 24.492C178.723 24.492 179.979 23.686 180.413 22.074H182.805C182.649 23.218 182.077 24.232 181.089 25.116C180.118 25.9827 178.61 26.416 176.565 26.416ZM180.335 18.33C180.213 15.782 178.965 14.508 176.591 14.508C175.412 14.508 174.485 14.8027 173.809 15.392C173.133 15.964 172.717 16.9433 172.561 18.33H180.335ZM184.875 13H187.449V16.146C188.35 13.91 189.884 12.792 192.051 12.792H192.441V15.314H191.791C190.144 15.314 189.009 15.7907 188.385 16.744C187.778 17.68 187.475 19.11 187.475 21.034V26H184.875V13Z" fill="#61F0FE"/>
</svg>
