<svg width="25" height="24" viewBox="0 0 25 24" fill="none" xmlns="http://www.w3.org/2000/svg">
<g opacity="0.4">
<path fill-rule="evenodd" clip-rule="evenodd" d="M4.0767 1.71402C5.38361 1.26163 7.12427 1 9 1C10.8757 1 12.6164 1.26163 13.9233 1.71402C14.572 1.93857 15.1685 2.22871 15.6225 2.60032C16.0692 2.9659 16.5 3.51776 16.5 4.25V6.00576C16.5 6.18564 16.5 6.27558 16.4642 6.34214C16.4359 6.39468 16.3947 6.43592 16.3421 6.46419C16.2756 6.5 16.1837 6.5 16 6.5C14.0031 6.5 12.0889 6.77632 10.586 7.29654C9.84635 7.55259 9.06918 7.91433 8.42746 8.43951C8.03926 8.75721 7.57625 9.24386 7.28513 9.90045C7.22098 10.0451 7.18891 10.1175 7.13388 10.15C7.07884 10.1826 7.00741 10.1766 6.86456 10.1645C5.1083 10.0157 3.62662 9.673 2.51286 9.13675C2.29088 9.02987 2.08514 8.91641 1.89569 8.79618C1.71436 8.68112 1.6237 8.62359 1.56185 8.51109C1.5 8.39858 1.5 8.27636 1.5 8.03192V4.25004C1.5 3.51781 1.93077 2.9659 2.37746 2.60032C2.83153 2.22871 3.428 1.93857 4.0767 1.71402ZM3.64414 4.14807C3.84791 3.98131 4.20334 3.78662 4.73092 3.604C5.77654 3.24205 7.28588 3 9 3C10.7141 3 12.2235 3.24205 13.2691 3.604C13.7967 3.78662 14.1521 3.98131 14.3559 4.14807C14.4217 4.20195 14.4217 4.29805 14.3559 4.35193C14.1521 4.51869 13.7967 4.71338 13.2691 4.896C12.2235 5.25795 10.7141 5.5 9 5.5C7.28588 5.5 5.77654 5.25795 4.73092 4.896C4.20334 4.71338 3.84791 4.51869 3.64414 4.35193C3.57831 4.29805 3.57831 4.20195 3.64414 4.14807Z" fill="#61F0FE"/>
<path d="M7 12.0516C7 11.8759 7 11.7881 6.94759 11.7308C6.89518 11.6735 6.80663 11.6656 6.62952 11.6497C4.79374 11.4854 3.16 11.1131 1.86214 10.4883C1.79931 10.458 1.7679 10.4429 1.74756 10.4379C1.63472 10.4103 1.5284 10.4771 1.50434 10.5907C1.5 10.6112 1.5 10.644 1.5 10.7095V13.8304C1.5 14.0954 1.5 14.2278 1.57203 14.347C1.64405 14.4663 1.74658 14.5202 1.95164 14.628C2.11214 14.7123 2.28497 14.7924 2.47047 14.8679C3.5317 15.3003 4.92548 15.5546 6.57777 15.6717C6.77437 15.6856 6.87267 15.6925 6.93633 15.6332C7 15.5739 7 15.4744 7 15.2754V12.0516Z" fill="#61F0FE"/>
<path d="M7 17.5801C7 17.401 7 17.3114 6.94597 17.2537C6.89195 17.196 6.8017 17.1901 6.6212 17.1783C4.80971 17.0595 3.19148 16.7814 1.90453 16.2571C1.79425 16.2121 1.73911 16.1897 1.69986 16.1897C1.61611 16.1898 1.54649 16.2366 1.51483 16.3141C1.5 16.3505 1.5 16.4073 1.5 16.521V19C1.5 19.7494 1.99085 20.2732 2.42253 20.5872C2.8761 20.9172 3.46813 21.1726 4.10972 21.37C4.89924 21.613 5.84972 21.7938 6.89416 21.898C7.25899 21.9344 7.4414 21.9526 7.50865 21.8574C7.57589 21.7623 7.48834 21.5762 7.31325 21.204C7.12477 20.8034 7 20.3357 7 19.8002V17.5801Z" fill="#61F0FE"/>
</g>
<path fill-rule="evenodd" clip-rule="evenodd" d="M16 8C14.1243 8 12.3836 8.26163 11.0767 8.71402C10.428 8.93857 9.83153 9.22871 9.37746 9.60032C8.93077 9.9659 8.5 10.5178 8.5 11.25V13.8808C8.5 14.3335 8.5 14.5599 8.62455 14.7855C8.74911 15.0111 8.90346 15.1083 9.21216 15.3027C10.7251 16.2552 13.0583 16.7498 16.0001 16.7498C18.9419 16.7498 21.2751 16.2552 22.788 15.3027C23.0966 15.1084 23.2509 15.0112 23.3754 14.7856C23.5 14.56 23.5 14.3336 23.5 13.8808V11.2502C23.5 10.518 23.0692 9.9659 22.6225 9.60032C22.1685 9.22871 21.572 8.93857 20.9233 8.71402C19.6164 8.26163 17.8757 8 16 8ZM11.7309 10.604C11.2033 10.7866 10.8479 10.9813 10.6441 11.1481C10.5783 11.202 10.5783 11.298 10.6441 11.3519C10.8479 11.5187 11.2033 11.7134 11.7309 11.896C12.7765 12.258 14.2859 12.5 16 12.5C17.7141 12.5 19.2235 12.258 20.2691 11.896C20.7967 11.7134 21.1521 11.5187 21.3559 11.3519C21.4217 11.298 21.4217 11.202 21.3559 11.1481C21.1521 10.9813 20.7967 10.7866 20.2691 10.604C19.2235 10.242 17.7141 10 16 10C14.2859 10 12.7765 10.242 11.7309 10.604Z" fill="#61F0FE"/>
<path d="M16.0001 18.2497C18.848 18.2497 21.3565 17.8115 23.1917 16.8044C23.3318 16.7275 23.4019 16.6891 23.4509 16.7181C23.5 16.7472 23.5 16.8256 23.5 16.9824V19.8001C23.5 20.535 23.0585 21.0815 22.614 21.4373C22.1598 21.8007 21.5641 22.0839 20.9168 22.303C19.6121 22.7446 17.8738 23.0001 16 23.0001C14.1262 23.0001 12.3879 22.7446 11.0832 22.303C10.4359 22.0839 9.84016 21.8007 9.38601 21.4373C8.94147 21.0815 8.5 20.535 8.5 19.8001V16.9823C8.5 16.8255 8.5 16.7471 8.54906 16.718C8.59813 16.689 8.66817 16.7274 8.80826 16.8043C10.6436 17.8114 13.1521 18.2497 16.0001 18.2497Z" fill="#61F0FE"/>
</svg>
