<svg width="24" height="24" viewBox="0 0 24 24" fill="none" xmlns="http://www.w3.org/2000/svg">
<path d="M2.98539 10.205C3.25498 9.87581 3.38978 9.7112 3.52075 9.75811C3.65173 9.80502 3.65134 10.0334 3.65055 10.4902C3.65054 10.4959 3.65053 10.5017 3.65053 10.5075C3.65053 15.9432 8.05703 20.3497 13.4927 20.3497C13.4985 20.3497 13.5043 20.3497 13.51 20.3497C13.9668 20.3489 14.1952 20.3485 14.2421 20.4795C14.289 20.6105 14.1244 20.7453 13.7952 21.0149C12.4706 22.0995 10.7772 22.7502 8.93171 22.7502C4.68922 22.7502 1.25 19.311 1.25 15.0685C1.25 13.223 1.90078 11.5296 2.98539 10.205Z" fill="#61F0FE"/>
<path opacity="0.4" d="M5.25 10.0002C5.25 5.16775 9.1675 1.25024 14 1.25024C18.8324 1.25024 22.75 5.16775 22.75 10.0002C22.75 14.8327 18.8324 18.7502 14 18.7502C9.1675 18.7502 5.25 14.8327 5.25 10.0002Z" fill="#61F0FE"/>
<path fill-rule="evenodd" clip-rule="evenodd" d="M13.985 5.25024C14.3992 5.25024 14.735 5.58603 14.735 6.00024V6.24041C15.6245 6.48482 16.3557 7.15611 16.5398 8.0751C16.6212 8.48124 16.358 8.87646 15.9518 8.95785C15.5457 9.03923 15.1505 8.77597 15.0691 8.36983C14.9995 8.02285 14.6034 7.63931 13.985 7.63931C13.2804 7.63931 12.8879 8.11795 12.8879 8.50248C12.8879 8.80299 12.9662 8.89441 13.0252 8.94152C13.1229 9.01936 13.3789 9.13519 13.985 9.13519C14.7147 9.13519 15.4221 9.25488 15.9546 9.66599C16.5305 10.1105 16.7501 10.7713 16.7501 11.4984C16.7501 12.2998 16.4208 12.9385 15.8445 13.3483C15.5139 13.5833 15.1306 13.7233 14.735 13.7962V14.0002C14.735 14.4145 14.3992 14.7502 13.985 14.7502C13.5708 14.7502 13.235 14.4145 13.235 14.0002V13.7724C12.2887 13.5446 11.4755 12.8911 11.2674 11.938C11.179 11.5333 11.4355 11.1336 11.8401 11.0453C12.2448 10.9569 12.6445 11.2134 12.7329 11.618C12.802 11.9346 13.2345 12.3615 13.985 12.3615C14.455 12.3615 14.7843 12.2616 14.9753 12.1258C15.1283 12.017 15.2501 11.8491 15.2501 11.4984C15.2501 11.0732 15.1339 10.9273 15.038 10.8534C14.8989 10.746 14.5988 10.6352 13.985 10.6352C13.2478 10.6352 12.5802 10.5051 12.0901 10.1143C11.5615 9.69282 11.3879 9.09289 11.3879 8.50248C11.3879 7.37241 12.2129 6.52457 13.235 6.24157V6.00024C13.235 5.58603 13.5708 5.25024 13.985 5.25024Z" fill="#61F0FE"/>
</svg>
