<svg width="25" height="24" viewBox="0 0 25 24" fill="none" xmlns="http://www.w3.org/2000/svg">
<path opacity="0.4" fill-rule="evenodd" clip-rule="evenodd" d="M12.4972 1.5H12.5028C13.1846 1.5 13.8198 1.5 14.4085 1.50499C14.9607 1.50967 15.4046 1.96117 15.4 2.51343C15.3953 3.0657 14.9438 3.5096 14.3915 3.50492C13.8122 3.50001 13.1849 3.5 12.5 3.5C11.8151 3.5 11.1878 3.50001 10.6085 3.50492C10.0562 3.5096 9.6047 3.0657 9.60002 2.51343C9.59534 1.96117 10.0392 1.50967 10.5915 1.50499C11.1802 1.5 11.8154 1.5 12.4972 1.5ZM3.01343 9.10004C3.5657 9.10472 4.0096 9.55621 4.00492 10.1085C4.00001 10.6878 4 11.3151 4 12C4 12.685 4.00001 13.3122 4.00492 13.8916C4.0096 14.4439 3.5657 14.8954 3.01343 14.9C2.46117 14.9047 2.00967 14.4608 2.00499 13.9086C2 13.3199 2 12.6847 2 12.0028V11.9972C2 11.3154 2 10.6802 2.00499 10.0915C2.00967 9.53926 2.46117 9.09535 3.01343 9.10004ZM21.9866 9.10004C22.5388 9.09535 22.9903 9.53926 22.995 10.0915C23 10.6803 23 11.3157 23 11.9977V12.0023C23 12.6844 23 13.3197 22.995 13.9086C22.9903 14.4608 22.5388 14.9047 21.9866 14.9C21.4343 14.8954 20.9904 14.4439 20.9951 13.8916C21 13.3122 21 12.685 21 12C21 11.3151 21 10.6878 20.9951 10.1085C20.9904 9.55621 21.4343 9.10472 21.9866 9.10004ZM9.60019 21.4866C9.60487 20.9343 10.0564 20.4904 10.6086 20.4951C11.188 20.5 11.8151 20.5 12.5 20.5C13.1849 20.5 13.8122 20.5 14.3915 20.4951C14.9438 20.4904 15.3953 20.9343 15.4 21.4866C15.4046 22.0388 14.9607 22.4903 14.4085 22.495C13.8199 22.5 13.1848 22.5 12.5031 22.5H12.4977C11.8157 22.5 11.1804 22.5 10.5917 22.495C10.0394 22.4903 9.59551 22.0388 9.60019 21.4866Z" fill="#61F0FE"/>
<path fill-rule="evenodd" clip-rule="evenodd" d="M7.78385 2.56928C7.88483 3.11226 7.52653 3.63429 6.98355 3.73527C6.07224 3.90476 5.5173 4.18081 5.09906 4.59906C4.68081 5.0173 4.40476 5.57224 4.23527 6.48355C4.13429 7.02653 3.61226 7.38483 3.06928 7.28385C2.52631 7.18286 2.16801 6.66083 2.26899 6.11786C2.48606 4.95069 2.89375 3.97593 3.68484 3.18484C4.47593 2.39375 5.45069 1.98606 6.61786 1.76899C7.16083 1.66801 7.68286 2.02631 7.78385 2.56928ZM17.2176 2.56928C17.3185 2.02631 17.8406 1.66801 18.3836 1.76899C19.5507 1.98606 20.5255 2.39375 21.3166 3.18484C22.1077 3.97593 22.5153 4.95069 22.7324 6.11786C22.8334 6.66083 22.4751 7.18286 21.9321 7.28385C21.3892 7.38483 20.8671 7.02653 20.7661 6.48355C20.5967 5.57224 20.3206 5.01731 19.9024 4.59906C19.4841 4.18081 18.9292 3.90476 18.0179 3.73527C17.4749 3.63429 17.1166 3.11226 17.2176 2.56928ZM3.06928 16.7176C3.61226 16.6166 4.13429 16.9749 4.23527 17.5179C4.40476 18.4292 4.68081 18.9841 5.09905 19.4024C5.5173 19.8206 6.07224 20.0967 6.98355 20.2661C7.52653 20.3671 7.88483 20.8892 7.78385 21.4321C7.68286 21.9751 7.16083 22.3334 6.61786 22.2324C5.45069 22.0153 4.47593 21.6077 3.68484 20.8166C2.89375 20.0255 2.48606 19.0507 2.26899 17.8836C2.16801 17.3406 2.52631 16.8185 3.06928 16.7176ZM21.9321 16.7176C22.4751 16.8185 22.8334 17.3406 22.7324 17.8836C22.5153 19.0507 22.1077 20.0255 21.3166 20.8166C20.5255 21.6077 19.5507 22.0153 18.3836 22.2324C17.8406 22.3334 17.3185 21.9751 17.2176 21.4321C17.1166 20.8892 17.4749 20.3671 18.0179 20.2661C18.9292 20.0967 19.4841 19.8206 19.9024 19.4024C20.3206 18.9841 20.5967 18.4292 20.7661 17.5179C20.8671 16.9749 21.3892 16.6166 21.9321 16.7176Z" fill="#61F0FE"/>
</svg>
