<svg width="24" height="25" viewBox="0 0 24 25" fill="none"
  xmlns="http://www.w3.org/2000/svg">
  <g clip-path="url(#clip0_3037_472)">
    <path d="M8.02742 19.2287C8.02742 19.3254 7.91613 19.4028 7.77581 19.4028C7.61613 19.4174 7.50484 19.3399 7.50484 19.2287C7.50484 19.1319 7.61613 19.0545 7.75645 19.0545C7.90161 19.0399 8.02742 19.1174 8.02742 19.2287ZM6.52258 19.0109C6.48871 19.1077 6.58548 19.219 6.73065 19.248C6.85645 19.2964 7.00161 19.248 7.03064 19.1512C7.05968 19.0545 6.96774 18.9432 6.82258 18.8996C6.69677 18.8658 6.55645 18.9141 6.52258 19.0109ZM8.66129 18.9287C8.52097 18.9625 8.42419 19.0545 8.43871 19.1658C8.45323 19.2625 8.57903 19.3254 8.72419 19.2916C8.86452 19.2577 8.96129 19.1658 8.94677 19.069C8.93226 18.977 8.80161 18.9141 8.66129 18.9287ZM11.8452 0.386719C5.13387 0.386719 0 5.48188 0 12.1932C0 17.5593 3.37742 22.1512 8.20161 23.7674C8.82097 23.8787 9.03871 23.4964 9.03871 23.1819C9.03871 22.8819 9.02419 21.227 9.02419 20.2109C9.02419 20.2109 5.6371 20.9367 4.92581 18.769C4.92581 18.769 4.37419 17.3609 3.58065 16.998C3.58065 16.998 2.47258 16.2383 3.65806 16.2528C3.65806 16.2528 4.8629 16.3496 5.52581 17.5012C6.58548 19.369 8.36129 18.8319 9.05323 18.5125C9.16452 17.7383 9.47903 17.2012 9.82742 16.8819C7.12258 16.5819 4.39355 16.1899 4.39355 11.5351C4.39355 10.2045 4.76129 9.53672 5.53548 8.68511C5.40968 8.37059 4.99839 7.07382 5.66129 5.39962C6.67258 5.08511 9 6.70607 9 6.70607C9.96774 6.43511 11.0081 6.29478 12.0387 6.29478C13.0694 6.29478 14.1097 6.43511 15.0774 6.70607C15.0774 6.70607 17.4048 5.08027 18.4161 5.39962C19.079 7.07865 18.6677 8.37059 18.5419 8.68511C19.3161 9.54156 19.7903 10.2093 19.7903 11.5351C19.7903 16.2045 16.9403 16.577 14.2355 16.8819C14.6806 17.2641 15.0581 17.9899 15.0581 19.127C15.0581 20.7577 15.0435 22.7754 15.0435 23.1722C15.0435 23.4867 15.2661 23.869 15.8806 23.7577C20.7194 22.1512 24 17.5593 24 12.1932C24 5.48188 18.5565 0.386719 11.8452 0.386719ZM4.70323 17.0754C4.64032 17.1238 4.65484 17.2351 4.7371 17.327C4.81452 17.4045 4.92581 17.4383 4.98871 17.3754C5.05161 17.327 5.0371 17.2157 4.95484 17.1238C4.87742 17.0464 4.76613 17.0125 4.70323 17.0754ZM4.18064 16.6835C4.14677 16.7464 4.19516 16.8238 4.29194 16.8722C4.36935 16.9206 4.46613 16.9061 4.5 16.8383C4.53387 16.7754 4.48548 16.698 4.38871 16.6496C4.29194 16.6206 4.21452 16.6351 4.18064 16.6835ZM5.74839 18.4061C5.67097 18.469 5.7 18.6141 5.81129 18.7061C5.92258 18.8174 6.0629 18.8319 6.12581 18.7545C6.18871 18.6916 6.15968 18.5464 6.0629 18.4545C5.95645 18.3432 5.81129 18.3287 5.74839 18.4061ZM5.19677 17.6948C5.11935 17.7432 5.11935 17.869 5.19677 17.9803C5.27419 18.0916 5.40484 18.1399 5.46774 18.0916C5.54516 18.0287 5.54516 17.9028 5.46774 17.7916C5.4 17.6803 5.27419 17.6319 5.19677 17.6948Z" fill="currentColor"/>
  </g>
  <defs>
    <clipPath id="clip0_3037_472">
      <rect width="24" height="24.7742" fill="white"/>
    </clipPath>
  </defs>
</svg>
