<svg width="24" height="24" viewBox="0 0 24 24" fill="none" xmlns="http://www.w3.org/2000/svg">
<g clip-path="url(#clip0_466_19)">
<path d="M12 21.75C12.3469 21.75 13.2656 21.4125 14.2313 19.4813C14.6438 18.6516 15 17.6437 15.2625 16.5H8.7375C9 17.6437 9.35625 18.6516 9.76875 19.4813C10.7344 21.4125 11.6531 21.75 12 21.75ZM8.36719 14.25H15.6328C15.7078 13.5328 15.75 12.7781 15.75 12C15.75 11.2219 15.7078 10.4672 15.6328 9.75H8.36719C8.29219 10.4672 8.25 11.2219 8.25 12C8.25 12.7781 8.29219 13.5328 8.36719 14.25ZM8.7375 7.5H15.2625C15 6.35625 14.6438 5.34844 14.2313 4.51875C13.2656 2.5875 12.3469 2.25 12 2.25C11.6531 2.25 10.7344 2.5875 9.76875 4.51875C9.35625 5.34844 9 6.35625 8.7375 7.5ZM17.8922 9.75C17.9625 10.4766 17.9953 11.2312 17.9953 12C17.9953 12.7688 17.9578 13.5234 17.8922 14.25H21.4875C21.6562 13.5281 21.75 12.7734 21.75 12C21.75 11.2266 21.6609 10.4719 21.4875 9.75H17.8969H17.8922ZM20.6484 7.5C19.6453 5.57344 18.0188 4.02656 16.0359 3.12187C16.6969 4.32188 17.2219 5.81719 17.5641 7.5H20.6531H20.6484ZM6.43125 7.5C6.77344 5.81719 7.29844 4.32656 7.95938 3.12187C5.97656 4.02656 4.35 5.57344 3.34688 7.5H6.43594H6.43125ZM2.5125 9.75C2.34375 10.4719 2.25 11.2266 2.25 12C2.25 12.7734 2.33906 13.5281 2.5125 14.25H6.10781C6.0375 13.5234 6.00469 12.7688 6.00469 12C6.00469 11.2312 6.04219 10.4766 6.10781 9.75H2.5125ZM16.0359 20.8781C18.0188 19.9734 19.6453 18.4266 20.6484 16.5H17.5641C17.2219 18.1828 16.6969 19.6734 16.0359 20.8781ZM7.96406 20.8781C7.30312 19.6781 6.77813 18.1828 6.43594 16.5H3.34688C4.35 18.4266 5.97656 19.9734 7.95938 20.8781H7.96406ZM12 24C8.8174 24 5.76516 22.7357 3.51472 20.4853C1.26428 18.2348 0 15.1826 0 12C0 8.8174 1.26428 5.76516 3.51472 3.51472C5.76516 1.26428 8.8174 0 12 0C15.1826 0 18.2348 1.26428 20.4853 3.51472C22.7357 5.76516 24 8.8174 24 12C24 15.1826 22.7357 18.2348 20.4853 20.4853C18.2348 22.7357 15.1826 24 12 24Z" fill="#808B9B"/>
</g>
<defs>
<clipPath id="clip0_466_19">
<rect width="24" height="24" fill="white"/>
</clipPath>
</defs>
</svg>
