<svg width="24" height="24" viewBox="0 0 24 24" fill="none" xmlns="http://www.w3.org/2000/svg">
<path d="M3.75 1.5H8.25C9.49219 1.5 10.5 2.50781 10.5 3.75V8.25C10.5 9.49219 9.49219 10.5 8.25 10.5H3.75C2.50781 10.5 1.5 9.49219 1.5 8.25V3.75C1.5 2.50781 2.50781 1.5 3.75 1.5ZM3.75 13.5H8.25C9.49219 13.5 10.5 14.5078 10.5 15.75V20.25C10.5 21.4922 9.49219 22.5 8.25 22.5H3.75C2.50781 22.5 1.5 21.4922 1.5 20.25V15.75C1.5 14.5078 2.50781 13.5 3.75 13.5ZM13.5 3.75C13.5 2.50781 14.5078 1.5 15.75 1.5H20.25C21.4922 1.5 22.5 2.50781 22.5 3.75V8.25C22.5 9.49219 21.4922 10.5 20.25 10.5H15.75C14.5078 10.5 13.5 9.49219 13.5 8.25V3.75ZM18 12.75C18.6234 12.75 19.125 13.2516 19.125 13.875V16.875H22.125C22.7484 16.875 23.25 17.3766 23.25 18C23.25 18.6234 22.7484 19.125 22.125 19.125H19.125V22.125C19.125 22.7484 18.6234 23.25 18 23.25C17.3766 23.25 16.875 22.7484 16.875 22.125V19.125H13.875C13.2516 19.125 12.75 18.6234 12.75 18C12.75 17.3766 13.2516 16.875 13.875 16.875H16.875V13.875C16.875 13.2516 17.3766 12.75 18 12.75Z" fill="#808B9B"/>
</svg>
