<svg width="14" height="12" viewBox="0 0 14 12" fill="none" xmlns="http://www.w3.org/2000/svg">
<path d="M13.4953 5.98828C13.4953 6.41016 13.1437 6.74063 12.7453 6.74063H11.9953L12.0117 10.4953C12.0164 11.3273 11.3438 12.0023 10.5117 12.0023H3.00234C2.175 12.0023 1.50234 11.3297 1.50234 10.5023V6.74063H0.75C0.328125 6.74063 0 6.4125 0 5.98828C0 5.77734 0.0703125 5.58984 0.234375 5.42578L6.24375 0.1875C6.40781 0.0234375 6.59531 0 6.75937 0C6.92344 0 7.11094 0.046875 7.25156 0.164062L13.2375 5.42578C13.425 5.58984 13.5187 5.77734 13.4953 5.98828Z" fill="#808B9B"/>
</svg>
