<svg width="13" height="12" viewBox="0 0 13 12" fill="none" xmlns="http://www.w3.org/2000/svg">
<g clip-path="url(#clip0_332_303)">
<path d="M6.5 1.125C7.79293 1.125 9.03291 1.63861 9.94715 2.55285C10.8614 3.46709 11.375 4.70707 11.375 6C11.375 7.29293 10.8614 8.53291 9.94715 9.44715C9.03291 10.3614 7.79293 10.875 6.5 10.875C5.20707 10.875 3.96709 10.3614 3.05285 9.44715C2.13861 8.53291 1.625 7.29293 1.625 6C1.625 4.70707 2.13861 3.46709 3.05285 2.55285C3.96709 1.63861 5.20707 1.125 6.5 1.125ZM6.5 12C8.0913 12 9.61742 11.3679 10.7426 10.2426C11.8679 9.11742 12.5 7.5913 12.5 6C12.5 4.4087 11.8679 2.88258 10.7426 1.75736C9.61742 0.632141 8.0913 0 6.5 0C4.9087 0 3.38258 0.632141 2.25736 1.75736C1.13214 2.88258 0.5 4.4087 0.5 6C0.5 7.5913 1.13214 9.11742 2.25736 10.2426C3.38258 11.3679 4.9087 12 6.5 12ZM5.5625 7.875C5.25078 7.875 5 8.12578 5 8.4375C5 8.74922 5.25078 9 5.5625 9H7.4375C7.74922 9 8 8.74922 8 8.4375C8 8.12578 7.74922 7.875 7.4375 7.875H7.25V5.8125C7.25 5.50078 6.99922 5.25 6.6875 5.25H5.5625C5.25078 5.25 5 5.50078 5 5.8125C5 6.12422 5.25078 6.375 5.5625 6.375H6.125V7.875H5.5625ZM6.5 4.5C6.69891 4.5 6.88968 4.42098 7.03033 4.28033C7.17098 4.13968 7.25 3.94891 7.25 3.75C7.25 3.55109 7.17098 3.36032 7.03033 3.21967C6.88968 3.07902 6.69891 3 6.5 3C6.30109 3 6.11032 3.07902 5.96967 3.21967C5.82902 3.36032 5.75 3.55109 5.75 3.75C5.75 3.94891 5.82902 4.13968 5.96967 4.28033C6.11032 4.42098 6.30109 4.5 6.5 4.5Z" fill="currentColor"/>
</g>
<defs>
<clipPath id="clip0_332_303">
<rect width="12" height="12" fill="white" transform="translate(0.5)"/>
</clipPath>
</defs>
</svg>
