<svg width="16" height="16" viewBox="0 0 16 16" fill="none" xmlns="http://www.w3.org/2000/svg">
  <path d="M1 2C1 1.44772 1.44772 1 2 1H5C5.55228 1 6 1.44772 6 2V5C6 5.55228 5.55228 6 5 6H2C1.44772 6 1 5.55228 1 5V2Z" fill="currentColor"/>
  <rect x="2.5" y="2.5" width="2" height="2" fill="#b0b0b0"/>
  <path d="M1 11C1 10.4477 1.44772 10 2 10H5C5.55228 10 6 10.4477 6 11V14C6 14.5523 5.55228 15 5 15H2C1.44772 15 1 14.5523 1 14V11Z" fill="currentColor"/>
  <rect x="2.5" y="11.5" width="2" height="2" fill="#b0b0b0"/>
  <path d="M10 2C10 1.44772 10.4477 1 11 1H14C14.5523 1 15 1.44772 15 2V5C15 5.55228 14.5523 6 14 6H11C10.4477 6 10 5.55228 10 5V2Z" fill="currentColor"/>
  <rect x="11.5" y="2.5" width="2" height="2" fill="#b0b0b0"/>
  <rect x="8" y="8" width="1.5" height="1.5" fill="currentColor"/>
  <rect x="10" y="8" width="1.5" height="1.5" fill="currentColor"/>
  <rect x="12" y="8" width="1.5" height="1.5" fill="currentColor"/>
  <rect x="14" y="8" width="1.5" height="1.5" fill="currentColor"/>
  <rect x="8" y="10" width="1.5" height="1.5" fill="currentColor"/>
  <rect x="12" y="10" width="1.5" height="1.5" fill="currentColor"/>
  <rect x="14" y="10" width="1.5" height="1.5" fill="currentColor"/>
  <rect x="8" y="12" width="1.5" height="1.5" fill="currentColor"/>
  <rect x="10" y="12" width="1.5" height="1.5" fill="currentColor"/>
  <rect x="14" y="12" width="1.5" height="1.5" fill="currentColor"/>
  <rect x="8" y="14" width="1.5" height="1.5" fill="currentColor"/>
  <rect x="12" y="14" width="1.5" height="1.5" fill="currentColor"/>
  <rect x="14" y="14" width="1.5" height="1.5" fill="currentColor"/>
</svg>
