<svg width="25" height="24" viewBox="0 0 25 24" fill="none" xmlns="http://www.w3.org/2000/svg">
<path opacity="0.4" d="M12.75 2.25C13.1642 2.25 13.5 2.58579 13.5 3C13.5 5.00608 14.5106 7.07493 16.0928 8.65717C17.6751 10.2394 19.7439 11.25 21.75 11.25C22.1642 11.25 22.5 11.5858 22.5 12C22.5 12.4142 22.1642 12.75 21.75 12.75C19.7439 12.75 17.6751 13.7606 16.0928 15.3428C14.5106 16.9251 13.5 18.9939 13.5 21C13.5 21.4142 13.1642 21.75 12.75 21.75C12.3358 21.75 12 21.4142 12 21C12 18.9939 10.9894 16.9251 9.40717 15.3428C7.82493 13.7606 5.75608 12.75 3.75 12.75C3.33579 12.75 3 12.4142 3 12C3 11.5858 3.33579 11.25 3.75 11.25C5.75608 11.25 7.82493 10.2394 9.40717 8.65717C10.9894 7.07493 12 5.00608 12 3C12 2.58579 12.3358 2.25 12.75 2.25Z" fill="#61F0FE"/>
<path d="M20 1.25C20.2135 1.25 20.3984 1.39794 20.4454 1.6062L20.6796 2.64601C20.8395 3.35601 21.394 3.91047 22.104 4.07041L23.1438 4.30464C23.3521 4.35155 23.5 4.53652 23.5 4.75C23.5 4.96348 23.3521 5.14845 23.1438 5.19536L22.104 5.42959C21.394 5.58953 20.8395 6.14398 20.6796 6.85398L20.4454 7.8938C20.3984 8.10206 20.2135 8.25 20 8.25C19.7865 8.25 19.6016 8.10206 19.5546 7.8938L19.3204 6.85398C19.1605 6.14398 18.606 5.58953 17.896 5.42959L16.8562 5.19536C16.6479 5.14845 16.5 4.96348 16.5 4.75C16.5 4.53652 16.6479 4.35155 16.8562 4.30464L17.896 4.07041C18.606 3.91047 19.1605 3.35602 19.3204 2.64601L19.5546 1.6062C19.6016 1.39794 19.7865 1.25 20 1.25Z" fill="#61F0FE"/>
<path d="M5.5 15.75C5.71348 15.75 5.89845 15.8979 5.94536 16.1062L6.17959 17.146C6.33953 17.856 6.89398 18.4105 7.60398 18.5704L8.6438 18.8046C8.85206 18.8516 9 19.0365 9 19.25C9 19.4635 8.85206 19.6484 8.6438 19.6954L7.60398 19.9296C6.89398 20.0895 6.33953 20.644 6.17959 21.354L5.94536 22.3938C5.89845 22.6021 5.71348 22.75 5.5 22.75C5.28652 22.75 5.10155 22.6021 5.05464 22.3938L4.82041 21.354C4.66047 20.644 4.10602 20.0895 3.39601 19.9296L2.3562 19.6954C2.14794 19.6484 2 19.4635 2 19.25C2 19.0365 2.14794 18.8516 2.3562 18.8046L3.39601 18.5704C4.10602 18.4105 4.66047 17.856 4.82041 17.146L5.05464 16.1062C5.10155 15.8979 5.28652 15.75 5.5 15.75Z" fill="#61F0FE"/>
</svg>
