<svg width="24" height="24" viewBox="0 0 24 24" fill="none" xmlns="http://www.w3.org/2000/svg">
<path d="M19.0595 7.05938C19.6454 6.47344 19.6454 5.52188 19.0595 4.93594C18.4735 4.35001 17.522 4.35001 16.936 4.93594L12.0001 9.87657L7.05947 4.94063C6.47354 4.35469 5.52197 4.35469 4.93604 4.94063C4.3501 5.52657 4.3501 6.47813 4.93604 7.06407L9.87666 12L4.94072 16.9406C4.35479 17.5266 4.35479 18.4781 4.94072 19.0641C5.52666 19.65 6.47822 19.65 7.06416 19.0641L12.0001 14.1234L16.9407 19.0594C17.5267 19.6453 18.4782 19.6453 19.0642 19.0594C19.6501 18.4734 19.6501 17.5219 19.0642 16.9359L14.1235 12L19.0595 7.05938Z" fill="currentColor"/>
</svg>
