<svg width="25" height="24" viewBox="0 0 25 24" fill="none" xmlns="http://www.w3.org/2000/svg">
<path opacity="0.4" d="M1.75 16C1.75 12.2721 4.77208 9.25 8.5 9.25C12.2279 9.25 15.25 12.2721 15.25 16C15.25 19.7279 12.2279 22.75 8.5 22.75C4.77208 22.75 1.75 19.7279 1.75 16Z" fill="#61F0FE"/>
<path opacity="0.4" d="M16.5001 1.25C20.2281 1.25 23.2501 4.27208 23.2501 8C23.2501 11.4976 20.59 14.3738 17.1826 14.7159C16.9472 14.7396 16.8294 14.7514 16.737 14.6843C16.6445 14.6172 16.6162 14.4879 16.5597 14.2294C15.8741 11.0943 13.4058 8.62605 10.2708 7.94046C10.0123 7.88392 9.883 7.85565 9.8159 7.76318C9.74879 7.6707 9.76061 7.55298 9.78425 7.31753C10.1264 3.91012 13.0026 1.25 16.5001 1.25Z" fill="#61F0FE"/>
<path fill-rule="evenodd" clip-rule="evenodd" d="M6.27448 4.24219L7.0663 5.19395C7.22824 5.38861 7.47748 5.48841 7.72902 5.45932C7.98056 5.43023 8.20044 5.27618 8.31368 5.0497L9.17082 3.33541C9.28707 3.10292 9.27464 2.82681 9.13799 2.6057C9.00133 2.38459 8.75993 2.25 8.5 2.25C7.71245 2.25 6.95502 2.38478 6.25052 2.63328C3.62763 3.55843 1.75 6.05696 1.75 9C1.75 9.41421 2.08579 9.75 2.5 9.75C2.91421 9.75 3.25 9.41421 3.25 9C3.25 6.89355 4.48604 5.07881 6.27448 4.24219Z" fill="#61F0FE"/>
<path fill-rule="evenodd" clip-rule="evenodd" d="M18.7255 19.7578L17.9337 18.806C17.7718 18.6114 17.5225 18.5116 17.271 18.5407C17.0194 18.5698 16.7996 18.7238 16.6863 18.9503L15.8292 20.6646C15.7129 20.8971 15.7254 21.1732 15.862 21.3943C15.9987 21.6154 16.2401 21.75 16.5 21.75C17.2875 21.75 18.045 21.6152 18.7495 21.3667C21.3724 20.4416 23.25 17.943 23.25 15C23.25 14.5858 22.9142 14.25 22.5 14.25C22.0858 14.25 21.75 14.5858 21.75 15C21.75 17.1064 20.514 18.9212 18.7255 19.7578Z" fill="#61F0FE"/>
</svg>
