<svg width="25" height="24" viewBox="0 0 25 24" fill="none" xmlns="http://www.w3.org/2000/svg">
<g clip-path="url(#clip0_98_282)">
<path d="M0.551514 10.875C0.781201 8.4047 1.76089 6.1547 3.2562 4.34532L5.38901 6.47814C4.42339 7.72501 3.77651 9.2297 3.57026 10.875H0.551514ZM6.98276 4.88907L4.84526 2.75626C6.65464 1.26095 8.90464 0.281262 11.375 0.0515747V3.07032C9.72964 3.27657 8.22495 3.92345 6.98276 4.88907ZM13.6249 20.9297C15.2703 20.7234 16.775 20.0766 18.0171 19.1109L20.15 21.2438C18.3453 22.7391 16.0953 23.7188 13.6249 23.9484V20.9297ZM19.6109 17.5172C20.5765 16.2703 21.2281 14.7656 21.4296 13.125H24.4484C24.2187 15.5953 23.239 17.8453 21.7437 19.6547L19.6109 17.5219V17.5172ZM4.84526 21.2438L6.97808 19.1109C8.22495 20.0766 9.72964 20.7281 11.3703 20.9297V23.9484C8.89995 23.7188 6.64995 22.7391 4.84058 21.2438H4.84526ZM3.2562 19.6547C1.76089 17.8453 0.781201 15.5953 0.551514 13.125H3.57026C3.77651 14.7703 4.42339 16.275 5.38901 17.5172L3.2562 19.6547ZM20.1546 2.75626L18.0218 4.88907C16.7749 3.92345 15.2703 3.27657 13.6249 3.07032V0.0515747C16.0953 0.281262 18.3453 1.26095 20.1546 2.75626ZM19.6109 6.48282L21.7437 4.35001C23.239 6.1547 24.2187 8.40939 24.4484 10.8797H21.4296C21.2234 9.23439 20.5765 7.7297 19.6109 6.48751V6.48282Z" fill="#808B9B"/>
</g>
<defs>
<clipPath id="clip0_98_282">
<rect width="24" height="24" fill="white" transform="translate(0.5)"/>
</clipPath>
</defs>
</svg>
