<svg width="16" height="16" viewBox="0 0 16 16" fill="none" xmlns="http://www.w3.org/2000/svg">
<path d="M14 11H9C8.44687 11 8 10.5531 8 10V2C8 1.44687 8.44687 1 9 1H12.3781C12.5094 1 12.6375 1.05313 12.7312 1.14688L14.8531 3.26875C14.9469 3.3625 15 3.49063 15 3.62188V10C15 10.5531 14.5531 11 14 11ZM15.5594 2.55938L13.4406 0.440625C13.1594 0.159375 12.7781 0 12.3813 0H9C7.89687 0 7 0.896875 7 2V10C7 11.1031 7.89687 12 9 12H14C15.1031 12 16 11.1031 16 10V3.62188C16 3.225 15.8406 2.84375 15.5594 2.5625V2.55938ZM2 4C0.896875 4 0 4.89687 0 6V14C0 15.1031 0.896875 16 2 16H7C8.10312 16 9 15.1031 9 14V13H8V14C8 14.5531 7.55312 15 7 15H2C1.44687 15 1 14.5531 1 14V6C1 5.44688 1.44687 5 2 5H6V4H2Z" fill="#808B9B"/>
</svg>
