<svg width="24" height="24" viewBox="0 0 24 24" fill="none" xmlns="http://www.w3.org/2000/svg">
<path fill-rule="evenodd" clip-rule="evenodd" d="M10.1341 2.47723C10.1467 3.02937 9.70927 3.48717 9.15713 3.49975C6.45365 3.56134 5.29954 3.83886 4.55254 4.58326C3.90786 5.22571 3.60144 6.18551 3.49879 8.24968C3.47136 8.80128 3.00195 9.2262 2.45035 9.19877C1.89875 9.17134 1.47382 8.70194 1.50126 8.15033C1.60672 6.02963 1.92292 4.38024 3.14079 3.1666C4.5219 1.79027 6.48249 1.56017 9.11157 1.50026C9.66371 1.48768 10.1215 1.92508 10.1341 2.47723ZM13.866 2.47723C13.8785 1.92508 14.3363 1.48768 14.8885 1.50026C17.5176 1.56017 19.4781 1.79027 20.8593 3.1666C22.0771 4.38024 22.3933 6.02963 22.4988 8.15033C22.5262 8.70194 22.1013 9.17134 21.5497 9.19877C20.9981 9.2262 20.5287 8.80128 20.5013 8.24968C20.3986 6.18551 20.0922 5.22571 19.4475 4.58326C18.7005 3.83886 17.5464 3.56134 14.8429 3.49975C14.2908 3.48717 13.8534 3.02937 13.866 2.47723ZM2.45035 14.8012C3.00195 14.7738 3.47136 15.1987 3.49879 15.7503C3.60144 17.8145 3.90786 18.7743 4.55254 19.4167C5.29954 20.1612 6.45365 20.4387 9.15713 20.5003C9.70927 20.5128 10.1467 20.9706 10.1341 21.5228C10.1215 22.0749 9.66371 22.5123 9.11157 22.4997C6.48249 22.4398 4.5219 22.2097 3.14079 20.8334C1.92292 19.6198 1.60673 17.9704 1.50126 15.8497C1.47382 15.2981 1.89875 14.8287 2.45035 14.8012ZM21.5497 14.8012C22.1013 14.8287 22.5262 15.2981 22.4988 15.8497C22.3933 17.9704 22.0771 19.6198 20.8593 20.8334C19.4781 22.2097 17.5176 22.4398 14.8885 22.4997C14.3363 22.5123 13.8785 22.0749 13.866 21.5228C13.8534 20.9706 14.2908 20.5128 14.8429 20.5003C17.5464 20.4387 18.7005 20.1612 19.4475 19.4167C20.0922 18.7743 20.3986 17.8145 20.5013 15.7503C20.5287 15.1987 20.9981 14.7738 21.5497 14.8012Z" fill="#61F0FE"/>
<path opacity="0.4" fill-rule="evenodd" clip-rule="evenodd" d="M7 12C7 9.23858 9.23858 7 12 7C14.7614 7 17 9.23858 17 12C17 14.7614 14.7614 17 12 17C9.23858 17 7 14.7614 7 12Z" fill="#61F0FE"/>
</svg>
