<svg width="15" height="24" viewBox="0 0 15 24" fill="none" xmlns="http://www.w3.org/2000/svg">
<g clip-path="url(#clip0_332_284)">
<path d="M7.50007 0C8.32976 0 9.00007 0.670312 9.00007 1.5V3.17344C9.07507 3.18281 9.14538 3.19219 9.22038 3.20625C9.23913 3.21094 9.25319 3.21094 9.27194 3.21562L11.5219 3.62813C12.3376 3.77813 12.8766 4.56094 12.7266 5.37187C12.5766 6.18281 11.7938 6.72656 10.9829 6.57656L8.75632 6.16875C7.28913 5.95313 5.99538 6.09844 5.08601 6.45938C4.17663 6.82031 3.81101 7.31719 3.72663 7.77656C3.63288 8.27812 3.70319 8.55937 3.78288 8.73281C3.86725 8.91563 4.04069 9.12187 4.38288 9.35156C5.14694 9.85312 6.31882 10.1813 7.83757 10.5844L7.97351 10.6219C9.31413 10.9781 10.9548 11.4094 12.1735 12.2062C12.8391 12.6422 13.4673 13.2328 13.8563 14.0578C14.2548 14.8969 14.3391 15.8344 14.1563 16.8328C13.8329 18.6141 12.6048 19.8047 11.0813 20.4281C10.4391 20.6906 9.74069 20.8594 9.00007 20.9437V22.5C9.00007 23.3297 8.32976 24 7.50007 24C6.67038 24 6.00007 23.3297 6.00007 22.5V20.8641C5.98132 20.8594 5.95788 20.8594 5.93913 20.8547H5.92976C4.78601 20.6766 2.90632 20.1844 1.64069 19.6219C0.886005 19.2844 0.543818 18.3984 0.881318 17.6437C1.21882 16.8891 2.10476 16.5469 2.85944 16.8844C3.83913 17.3203 5.45163 17.7516 6.38444 17.8969C7.87976 18.1172 9.11257 17.9906 9.94694 17.6484C10.7391 17.325 11.1001 16.8563 11.2032 16.2938C11.2923 15.7969 11.2219 15.5109 11.1423 15.3375C11.0532 15.15 10.8798 14.9437 10.5329 14.7141C9.76413 14.2125 8.58757 13.8844 7.06413 13.4813L6.93288 13.4484C5.59694 13.0922 3.95632 12.6562 2.73757 11.8594C2.07194 11.4234 1.44851 10.8281 1.05944 10.0031C0.665693 9.16406 0.586005 8.22656 0.773505 7.22812C1.11101 5.4375 2.45163 4.275 3.97507 3.67031C4.59851 3.42188 5.28288 3.25313 6.00007 3.15469V1.5C6.00007 0.670312 6.67038 0 7.50007 0Z" fill="#61F0FE"/>
</g>
<defs>
<clipPath id="clip0_332_284">
<rect width="15" height="24" fill="white"/>
</clipPath>
</defs>
</svg>
