<svg width="25" height="24" viewBox="0 0 25 24" fill="none" xmlns="http://www.w3.org/2000/svg">
<path d="M1.5 4C1.5 2.48122 2.73122 1.25 4.25 1.25C5.76878 1.25 7 2.48122 7 4C7 5.51878 5.76878 6.75 4.25 6.75C2.73122 6.75 1.5 5.51878 1.5 4Z" fill="#61F0FE"/>
<path opacity="0.4" d="M9.5 4C9.5 2.48122 10.7312 1.25 12.25 1.25C13.7688 1.25 15 2.48122 15 4C15 5.51878 13.7688 6.75 12.25 6.75C10.7312 6.75 9.5 5.51878 9.5 4Z" fill="#61F0FE"/>
<path d="M17.5 4C17.5 2.48122 18.7312 1.25 20.25 1.25C21.7688 1.25 23 2.48122 23 4C23 5.51878 21.7688 6.75 20.25 6.75C18.7312 6.75 17.5 5.51878 17.5 4Z" fill="#61F0FE"/>
<path opacity="0.4" d="M1.5 12C1.5 10.4812 2.73122 9.25 4.25 9.25C5.76878 9.25 7 10.4812 7 12C7 13.5188 5.76878 14.75 4.25 14.75C2.73122 14.75 1.5 13.5188 1.5 12Z" fill="#61F0FE"/>
<path d="M1.5 20C1.5 18.4812 2.73122 17.25 4.25 17.25C5.76878 17.25 7 18.4812 7 20C7 21.5188 5.76878 22.75 4.25 22.75C2.73122 22.75 1.5 21.5188 1.5 20Z" fill="#61F0FE"/>
<path d="M9.5 12C9.5 10.4812 10.7312 9.25 12.25 9.25C13.7688 9.25 15 10.4812 15 12C15 13.5188 13.7688 14.75 12.25 14.75C10.7312 14.75 9.5 13.5188 9.5 12Z" fill="#61F0FE"/>
<path opacity="0.4" d="M9.5 20C9.5 18.4812 10.7312 17.25 12.25 17.25C13.7688 17.25 15 18.4812 15 20C15 21.5188 13.7688 22.75 12.25 22.75C10.7312 22.75 9.5 21.5188 9.5 20Z" fill="#61F0FE"/>
<path opacity="0.4" d="M17.5 12C17.5 10.4812 18.7312 9.25 20.25 9.25C21.7688 9.25 23 10.4812 23 12C23 13.5188 21.7688 14.75 20.25 14.75C18.7312 14.75 17.5 13.5188 17.5 12Z" fill="#61F0FE"/>
<path d="M17.5 20C17.5 18.4812 18.7312 17.25 20.25 17.25C21.7688 17.25 23 18.4812 23 20C23 21.5188 21.7688 22.75 20.25 22.75C18.7312 22.75 17.5 21.5188 17.5 20Z" fill="#61F0FE"/>
</svg>
