<svg width="25" height="24" viewBox="0 0 25 24" fill="none" xmlns="http://www.w3.org/2000/svg">
<path d="M10.75 3.75C10.75 2.50781 9.74219 1.5 8.5 1.5H4C2.75781 1.5 1.75 2.50781 1.75 3.75V8.25C1.75 9.49219 2.75781 10.5 4 10.5H8.5C9.74219 10.5 10.75 9.49219 10.75 8.25V3.75ZM10.75 15.75C10.75 14.5078 9.74219 13.5 8.5 13.5H4C2.75781 13.5 1.75 14.5078 1.75 15.75V20.25C1.75 21.4922 2.75781 22.5 4 22.5H8.5C9.74219 22.5 10.75 21.4922 10.75 20.25V15.75ZM13.75 3.75V8.25C13.75 9.49219 14.7578 10.5 16 10.5H20.5C21.7422 10.5 22.75 9.49219 22.75 8.25V3.75C22.75 2.50781 21.7422 1.5 20.5 1.5H16C14.7578 1.5 13.75 2.50781 13.75 3.75ZM22.75 15.75C22.75 14.5078 21.7422 13.5 20.5 13.5H16C14.7578 13.5 13.75 14.5078 13.75 15.75V20.25C13.75 21.4922 14.7578 22.5 16 22.5H20.5C21.7422 22.5 22.75 21.4922 22.75 20.25V15.75Z" fill="#808B9B"/>
</svg>
