<svg width="18" height="24" viewBox="0 0 18 24" fill="none" xmlns="http://www.w3.org/2000/svg">
<path d="M0 1.5C0 0.670312 0.670312 0 1.5 0H3H15H16.5C17.3297 0 18 0.670312 18 1.5C18 2.32969 17.3297 3 16.5 3V3.51562C16.5 5.50313 15.7078 7.41094 14.3016 8.81719L11.1234 12L14.3063 15.1828C15.7125 16.5891 16.5047 18.4969 16.5047 20.4844V21C17.3344 21 18.0047 21.6703 18.0047 22.5C18.0047 23.3297 17.3344 24 16.5047 24H15H3H1.5C0.670312 24 0 23.3297 0 22.5C0 21.6703 0.670312 21 1.5 21V20.4844C1.5 18.4969 2.29219 16.5891 3.69844 15.1828L6.87656 12L3.69844 8.81719C2.29219 7.41094 1.5 5.50313 1.5 3.51562V3C0.670312 3 0 2.32969 0 1.5ZM4.5 3V3.51562C4.5 4.71094 4.97344 5.85469 5.81719 6.69844L9 9.87656L12.1828 6.69375C13.0266 5.85 13.5 4.70625 13.5 3.51094V3H4.5ZM4.5 21H13.5V20.4844C13.5 19.2891 13.0266 18.1453 12.1828 17.3016L9 14.1234L5.81719 17.3063C4.97344 18.15 4.5 19.2938 4.5 20.4891V21.0047V21Z" fill="#61F0FE"/>
</svg>
