<svg width="24" height="24" viewBox="0 0 24 24" fill="none" xmlns="http://www.w3.org/2000/svg">
<g clip-path="url(#clip0_49_411)">
<path d="M0 10.5C0 11.3297 0.670312 12 1.5 12C2.32969 12 3 11.3297 3 10.5C3 8.01562 5.01562 6 7.5 6H15V7.5C15 8.10468 15.3656 8.65312 15.9281 8.8875C16.4906 9.12187 17.1328 8.99062 17.5641 8.56406L20.5641 5.56406C21.15 4.97812 21.15 4.02656 20.5641 3.44062L17.5641 0.440621C17.1328 0.00937091 16.4906 -0.117192 15.9281 0.117183C15.3656 0.351558 15 0.895308 15 1.5V3H7.5C3.35625 3 0 6.35625 0 10.5ZM24 13.5C24 12.6703 23.3297 12 22.5 12C21.6703 12 21 12.6703 21 13.5C21 15.9844 18.9844 18 16.5 18H9V16.5C9 15.8953 8.63437 15.3469 8.07187 15.1125C7.50937 14.8781 6.86719 15.0094 6.43594 15.4359L3.43594 18.4359C2.85 19.0219 2.85 19.9734 3.43594 20.5594L6.43594 23.5594C6.86719 23.9906 7.50937 24.1172 8.07187 23.8828C8.63437 23.6484 9 23.1047 9 22.4953V21H16.5C20.6437 21 24 17.6437 24 13.5Z" fill="#61F0FE"/>
</g>
<defs>
<clipPath id="clip0_49_411">
<rect width="24" height="24" fill="white"/>
</clipPath>
</defs>
</svg>
