<svg width="24" height="24" viewBox="0 0 24 24" fill="none" xmlns="http://www.w3.org/2000/svg">
<path opacity="0.4" fill-rule="evenodd" clip-rule="evenodd" d="M6.94315 0.949219C5.13681 0.949219 3.33751 2.20156 3.25421 4.23521C3.16084 6.51476 4.78989 7.96114 6.02989 9.01301C6.93644 9.78203 7.54545 10.301 7.94968 10.7409C8.34207 11.1679 8.42619 11.4011 8.44277 11.5707C8.45112 11.6562 8.45112 11.7422 8.44277 11.8277C8.42619 11.9974 8.34207 12.2305 7.94968 12.6575C7.54545 13.0974 6.93644 13.6164 6.02989 14.3854L5.97859 14.4289C4.72238 15.4941 3.15823 16.8204 3.25421 19.1632C3.33751 21.1969 5.13681 22.4492 6.94315 22.4492H17.0569C18.8632 22.4492 20.6625 21.1969 20.7458 19.1632C20.8019 17.7946 20.2966 16.3999 19.1902 15.4217C18.9144 15.1779 18.6238 14.9344 18.3453 14.7011L18.3441 14.7001C18.216 14.5927 18.0904 14.4875 17.9701 14.3854C17.0636 13.6164 16.4546 13.0974 16.0503 12.6575C15.6579 12.2305 15.5738 11.9974 15.5573 11.8277C15.5489 11.7422 15.5489 11.6562 15.5573 11.5707C15.5738 11.4011 15.6579 11.1679 16.0503 10.7409C16.4546 10.301 17.0636 9.78203 17.9701 9.01301L17.9858 8.9997C19.2365 7.93879 20.8417 6.57715 20.7458 4.23521C20.6625 2.20156 18.8632 0.949219 17.0569 0.949219H6.94315ZM8.2708 19.8874C8.13113 20.1267 8.10416 20.4947 8.49392 20.4947H15.507C15.8967 20.4947 15.8698 20.1267 15.7301 19.8874C15.51 19.5104 15.1529 19.2579 14.8733 19.0602C14.0168 18.4483 13.1085 17.699 11.9998 17.6992C10.8916 17.6995 9.98363 18.4486 9.1276 19.0602C8.84798 19.2579 8.49084 19.5104 8.2708 19.8874Z" fill="#61F0FE"/>
<path fill-rule="evenodd" clip-rule="evenodd" d="M8.26983 19.8874C8.13017 20.1267 8.10319 20.4947 8.49295 20.4947H15.506C15.8958 20.4947 15.8688 20.1267 15.7291 19.8874C15.5091 19.5104 15.1519 19.2579 14.8723 19.0602C14.0159 18.4483 13.1075 17.699 11.9988 17.6992C10.8907 17.6995 9.98267 18.4486 9.12663 19.0602C8.84702 19.2579 8.48987 19.5104 8.26983 19.8874Z" fill="#61F0FE"/>
</svg>
