<svg width="25" height="24" viewBox="0 0 25 24" fill="none" xmlns="http://www.w3.org/2000/svg">
<g clip-path="url(#clip0_98_280)">
<path d="M16.0218 7.13906C16.0827 7.35469 16.2796 7.5 16.4999 7.5C16.7202 7.5 16.9171 7.35469 16.978 7.13906L17.6249 4.875L19.889 4.22812C20.1046 4.16719 20.2499 3.97031 20.2499 3.75C20.2499 3.52969 20.1046 3.33281 19.889 3.27188L17.6249 2.625L16.978 0.360937C16.9171 0.145312 16.7202 0 16.4999 0C16.2796 0 16.0827 0.145312 16.0218 0.360937L15.3749 2.625L13.1108 3.27188C12.8952 3.33281 12.7499 3.52969 12.7499 3.75C12.7499 3.97031 12.8952 4.16719 13.1108 4.22812L15.3749 4.875L16.0218 7.13906ZM10.753 7.37812C10.3405 6.53906 9.1452 6.53906 8.7327 7.37812L6.56239 11.7844L1.71083 12.4922C0.792079 12.6234 0.421767 13.7578 1.08739 14.4094L4.59833 17.8406L3.77333 22.6828C3.61395 23.6016 4.57958 24.3047 5.40458 23.8688L9.7452 21.5812L14.0858 23.8688C14.9108 24.3047 15.8765 23.6016 15.7171 22.6828L14.8874 17.8406L18.3983 14.4094C19.064 13.7578 18.6983 12.6234 17.7749 12.4922L12.9233 11.7844L10.753 7.37812ZM20.8499 11.4L21.3655 13.2094C21.4124 13.3781 21.5718 13.5 21.7499 13.5C21.928 13.5 22.0827 13.3828 22.1343 13.2094L22.6499 11.4L24.4593 10.8844C24.628 10.8375 24.7499 10.6781 24.7499 10.5C24.7499 10.3219 24.6327 10.1672 24.4593 10.1156L22.6499 9.6L22.1343 7.79062C22.0874 7.62187 21.928 7.5 21.7499 7.5C21.5718 7.5 21.4171 7.61719 21.3655 7.79062L20.8499 9.6L19.0405 10.1156C18.8718 10.1625 18.7499 10.3219 18.7499 10.5C18.7499 10.6781 18.8671 10.8328 19.0405 10.8844L20.8499 11.4Z" fill="#808B9B"/>
</g>
<defs>
<clipPath id="clip0_98_280">
<rect width="24" height="24" fill="white" transform="translate(0.75)"/>
</clipPath>
</defs>
</svg>
