<svg width="24" height="24" viewBox="0 0 24 24" fill="none" xmlns="http://www.w3.org/2000/svg">
<path d="M3 1.5C1.34531 1.5 0 2.84531 0 4.5V19.5C0 21.1547 1.34531 22.5 3 22.5H21C22.6547 22.5 24 21.1547 24 19.5V9C24 7.34531 22.6547 6 21 6H3.75C3.3375 6 3 5.6625 3 5.25C3 4.8375 3.3375 4.5 3.75 4.5H21C21.8297 4.5 22.5 3.82969 22.5 3C22.5 2.17031 21.8297 1.5 21 1.5H3ZM19.5 12.75C19.8978 12.75 20.2794 12.908 20.5607 13.1893C20.842 13.4706 21 13.8522 21 14.25C21 14.6478 20.842 15.0294 20.5607 15.3107C20.2794 15.592 19.8978 15.75 19.5 15.75C19.1022 15.75 18.7206 15.592 18.4393 15.3107C18.158 15.0294 18 14.6478 18 14.25C18 13.8522 18.158 13.4706 18.4393 13.1893C18.7206 12.908 19.1022 12.75 19.5 12.75Z" fill="#61F0FE"/>
</svg>
