<svg width="25" height="24" viewBox="0 0 25 24" fill="none" xmlns="http://www.w3.org/2000/svg">
<path opacity="0.4" fill-rule="evenodd" clip-rule="evenodd" d="M19.335 6.21961C19.3239 5.80758 19.2931 5.4585 19.2077 5.14068C18.8462 3.79483 17.7926 2.7436 16.4436 2.38298C15.9435 2.24931 15.3663 2.24963 14.589 2.25005L4.68182 2.25009C3.06262 2.25009 1.75 3.55965 1.75 5.17508V13.0464C1.74997 14.8242 1.74995 16.2572 1.90183 17.3843C2.05952 18.5544 2.39687 19.5397 3.18118 20.3222C3.9655 21.1046 4.95303 21.4412 6.1259 21.5985C7.25559 21.75 8.69196 21.75 10.474 21.75H16.478C17.8014 21.75 18.8927 21.7501 19.7563 21.6342C20.6631 21.5126 21.4639 21.2474 22.1051 20.6077C22.7463 19.968 23.012 19.1691 23.1339 18.2645C23.2501 17.4028 23.25 16.3141 23.25 14.9938V12.9063C23.25 11.586 23.2501 10.4973 23.1339 9.63562C23.012 8.73099 22.7463 7.93206 22.1051 7.29235C21.4639 6.65265 20.6631 6.38748 19.7563 6.26586C19.6214 6.24776 19.481 6.2325 19.335 6.21961ZM14.4541 4.20007C15.4259 4.20007 15.72 4.20845 15.9372 4.26652C16.6117 4.44683 17.1386 4.97244 17.3193 5.64537C17.3505 5.76142 17.3674 5.89948 17.3763 6.15156C17.0897 6.15005 16.7901 6.15005 16.4776 6.15006H4.68137C4.14164 6.15006 3.7041 5.71354 3.7041 5.17507C3.7041 4.63659 4.14164 4.20007 4.68137 4.20007H14.4541Z" fill="#61F0FE"/>
<path d="M20 14C20 12.8954 19.1046 12 18 12C16.8954 12 16 12.8954 16 14C16 15.1046 16.8954 16 18 16C19.1046 16 20 15.1046 20 14Z" fill="#61F0FE"/>
</svg>
