<svg width="60" height="16" viewBox="0 0 60 16" fill="none" xmlns="http://www.w3.org/2000/svg">
<path fill-rule="evenodd" clip-rule="evenodd" d="M0 0H4.01197V12.0008H0V0ZM5.35156 0H9.33565V16H5.35156V0Z" fill="#808B9B"/>
<path d="M51.4375 8.25977C51.4375 6.88158 51.8557 5.76305 52.6721 4.92416C53.5085 4.06529 54.5838 3.64584 55.8981 3.64584C57.1726 3.64584 58.1484 4.02534 58.8254 4.78434C59.5224 5.52337 59.9008 6.42219 60.0003 7.46082L58.5466 7.56069C58.4072 6.04269 57.4713 4.98408 55.8782 4.98408C54.2652 4.98408 53.1302 6.2624 53.1302 8.25977C53.1302 10.2571 54.2652 11.5355 55.8782 11.5355C57.4713 11.5355 58.4072 10.4169 58.5466 8.89892L60.0003 9.03874C59.9008 10.0973 59.5224 10.9962 58.8254 11.7352C58.1484 12.4742 57.1726 12.8537 55.8981 12.8537C54.5838 12.8537 53.5085 12.4343 52.6721 11.5954C51.8557 10.7565 51.4375 9.63795 51.4375 8.25977Z" fill="#808B9B"/>
<path d="M48.0469 1.90814V0.0306091H49.7594V1.90814H48.0469ZM48.0867 3.88553H49.7395V12.614H48.0867V3.88553Z" fill="#808B9B"/>
<path d="M39.217 10.7963L38.8586 12.6139H37.604V0.0304871H39.2568V5.72299C39.6352 4.66438 40.7703 3.64573 42.3833 3.64573C43.6577 3.64573 44.6335 4.10512 45.3305 5.00394C46.0274 5.90275 46.366 6.98133 46.366 8.25965C46.366 9.53796 46.0274 10.6165 45.3305 11.5154C44.6335 12.4142 43.6577 12.8536 42.3633 12.8536C40.7703 12.8536 39.6153 11.8949 39.217 10.7963ZM39.217 7.99999V8.49933C39.217 10.4168 40.4317 11.5353 42.0049 11.5353C43.6976 11.5353 44.6534 10.257 44.6534 8.25965C44.6534 6.26228 43.6976 4.98396 42.0049 4.98396C40.4317 4.98396 39.217 6.10249 39.217 7.99999Z" fill="#808B9B"/>
<path d="M33.678 8.8988V3.88541H35.3309V12.6139H33.678V11.0759C33.2599 12.1146 32.1248 12.8536 30.8304 12.8536C29.6953 12.8536 28.8988 12.514 28.4209 11.8549C27.9628 11.1758 27.7239 10.3369 27.7239 9.31825V3.88541H29.3767V9.15846C29.3767 10.5966 30.0339 11.5553 31.388 11.5553C32.6824 11.5553 33.678 10.4967 33.678 8.8988Z" fill="#808B9B"/>
<path d="M23.9111 15.9695V10.7963C23.5129 11.8549 22.3977 12.8536 20.7847 12.8536C19.4903 12.8536 18.5146 12.4142 17.8176 11.5154C17.1405 10.6165 16.802 9.53796 16.802 8.25964C16.802 6.98133 17.1405 5.90275 17.8176 5.00393C18.5146 4.10512 19.4903 3.64572 20.7847 3.64572C22.3977 3.64572 23.5129 4.66438 23.9111 5.72299V3.88541H25.564V15.9695H23.9111ZM23.9311 8.49933V7.99999C23.9311 6.10249 22.7362 4.98396 21.1631 4.98396C19.4704 4.98396 18.4947 6.26228 18.4947 8.25964C18.4947 10.257 19.4704 11.5353 21.1631 11.5353C22.7362 11.5353 23.9311 10.4168 23.9311 8.49933Z" fill="#808B9B"/>
</svg>
