<svg width="180" height="26" viewBox="0 0 180 26" fill="none" xmlns="http://www.w3.org/2000/svg">
  <path d="M172.262 20.0001V7.28613H174.264V8.84613H174.628C174.853 8.29146 175.2 7.88413 175.668 7.62413C176.136 7.36413 176.751 7.23413 177.514 7.23413H179.022V9.10613H177.384C176.465 9.10613 175.72 9.36613 175.148 9.88613C174.593 10.3888 174.316 11.1775 174.316 12.2521V20.0001H172.262Z" fill="#019AB8"/>
  <path d="M164.519 20.3641C163.236 20.3641 162.11 20.0955 161.139 19.5581C160.168 19.0035 159.414 18.2321 158.877 17.2441C158.34 16.2561 158.071 15.1121 158.071 13.8121V13.5001C158.071 12.1828 158.34 11.0301 158.877 10.0421C159.414 9.05412 160.16 8.29145 161.113 7.75412C162.066 7.19945 163.158 6.92212 164.389 6.92212C165.585 6.92212 166.642 7.18212 167.561 7.70212C168.48 8.20479 169.199 8.93279 169.719 9.88612C170.239 10.8395 170.499 11.9575 170.499 13.2401V14.1761H160.125C160.177 15.5455 160.619 16.6201 161.451 17.4001C162.283 18.1628 163.323 18.5441 164.571 18.5441C165.663 18.5441 166.504 18.2928 167.093 17.7901C167.682 17.2875 168.133 16.6895 168.445 15.9961L170.213 16.8541C169.953 17.3915 169.589 17.9288 169.121 18.4661C168.67 19.0035 168.072 19.4541 167.327 19.8181C166.599 20.1821 165.663 20.3641 164.519 20.3641ZM160.151 12.4861H168.419C168.35 11.3075 167.942 10.3888 167.197 9.73012C166.469 9.07145 165.533 8.74212 164.389 8.74212C163.228 8.74212 162.274 9.07145 161.529 9.73012C160.784 10.3888 160.324 11.3075 160.151 12.4861Z" fill="#019AB8"/>
  <path d="M151.171 20.0001V7.28613H153.173V8.84613H153.537C153.763 8.29146 154.109 7.88413 154.577 7.62413C155.045 7.36413 155.661 7.23413 156.423 7.23413H157.931V9.10613H156.293C155.375 9.10613 154.629 9.36613 154.057 9.88613C153.503 10.3888 153.225 11.1775 153.225 12.2521V20.0001H151.171Z" fill="#019AB8"/>
  <path d="M142.795 20.3641C141.512 20.3641 140.377 20.0955 139.389 19.5581C138.418 19.0208 137.656 18.2668 137.101 17.2961C136.564 16.3081 136.295 15.1468 136.295 13.8121V13.4741C136.295 12.1568 136.564 11.0041 137.101 10.0161C137.656 9.02812 138.418 8.26545 139.389 7.72812C140.377 7.19079 141.512 6.92212 142.795 6.92212C144.078 6.92212 145.204 7.19079 146.175 7.72812C147.163 8.26545 147.926 9.02812 148.463 10.0161C149.018 11.0041 149.295 12.1568 149.295 13.4741V13.8121C149.295 15.1468 149.018 16.3081 148.463 17.2961C147.926 18.2668 147.163 19.0208 146.175 19.5581C145.204 20.0955 144.078 20.3641 142.795 20.3641ZM142.795 18.5181C144.147 18.5181 145.222 18.0935 146.019 17.2441C146.834 16.3775 147.241 15.2161 147.241 13.7601V13.5261C147.241 12.0701 146.834 10.9175 146.019 10.0681C145.222 9.20145 144.147 8.76812 142.795 8.76812C141.46 8.76812 140.386 9.20145 139.571 10.0681C138.756 10.9175 138.349 12.0701 138.349 13.5261V13.7601C138.349 15.2161 138.756 16.3775 139.571 17.2441C140.386 18.0935 141.46 18.5181 142.795 18.5181Z" fill="#019AB8"/>
  <path d="M132.366 20V1.80005H134.42V20H132.366Z" fill="#019AB8"/>
  <path d="M117.453 25.2001V7.28612H119.455V9.39212H119.819C120.149 8.75079 120.677 8.17879 121.405 7.67612C122.151 7.17345 123.182 6.92212 124.499 6.92212C125.591 6.92212 126.588 7.19079 127.489 7.72812C128.408 8.24812 129.136 8.99345 129.673 9.96412C130.228 10.9348 130.505 12.1048 130.505 13.4741V13.8121C130.505 15.1641 130.237 16.3341 129.699 17.3221C129.162 18.3101 128.434 19.0641 127.515 19.5841C126.614 20.1041 125.609 20.3641 124.499 20.3641C123.615 20.3641 122.861 20.2428 122.237 20.0001C121.631 19.7748 121.137 19.4801 120.755 19.1161C120.374 18.7521 120.079 18.3795 119.871 17.9981H119.507V25.2001H117.453ZM123.953 18.5441C125.271 18.5441 126.337 18.1281 127.151 17.2961C127.983 16.4468 128.399 15.2681 128.399 13.7601V13.5261C128.399 12.0181 127.983 10.8481 127.151 10.0161C126.337 9.16679 125.271 8.74212 123.953 8.74212C122.653 8.74212 121.579 9.16679 120.729 10.0161C119.897 10.8481 119.481 12.0181 119.481 13.5261V13.7601C119.481 15.2681 119.897 16.4468 120.729 17.2961C121.579 18.1281 122.653 18.5441 123.953 18.5441Z" fill="#019AB8"/>
  <path d="M102.821 20.0001L107.917 13.5521L102.977 7.28613H105.447L109.243 12.2001H109.607L113.377 7.28613H115.873L110.907 13.5521L116.003 20.0001H113.507L109.607 14.9301H109.243L105.343 20.0001H102.821Z" fill="#019AB8"/>
  <path d="M96.9819 20.3641C95.6993 20.3641 94.5726 20.0955 93.6019 19.5581C92.6313 19.0035 91.8773 18.2321 91.3399 17.2441C90.8026 16.2561 90.5339 15.1121 90.5339 13.8121V13.5001C90.5339 12.1828 90.8026 11.0301 91.3399 10.0421C91.8773 9.05412 92.6226 8.29145 93.5759 7.75412C94.5293 7.19945 95.6213 6.92212 96.8519 6.92212C98.0479 6.92212 99.1053 7.18212 100.024 7.70212C100.943 8.20479 101.662 8.93279 102.182 9.88612C102.702 10.8395 102.962 11.9575 102.962 13.2401V14.1761H92.5879C92.6399 15.5455 93.0819 16.6201 93.9139 17.4001C94.7459 18.1628 95.7859 18.5441 97.0339 18.5441C98.1259 18.5441 98.9666 18.2928 99.5559 17.7901C100.145 17.2875 100.596 16.6895 100.908 15.9961L102.676 16.8541C102.416 17.3915 102.052 17.9288 101.584 18.4661C101.133 19.0035 100.535 19.4541 99.7899 19.8181C99.0619 20.1821 98.1259 20.3641 96.9819 20.3641ZM92.6139 12.4861H100.882C100.813 11.3075 100.405 10.3888 99.6599 9.73012C98.9319 9.07145 97.9959 8.74212 96.8519 8.74212C95.6906 8.74212 94.7373 9.07145 93.9919 9.73012C93.2466 10.3888 92.7873 11.3075 92.6139 12.4861Z" fill="#019AB8"/>
  <path d="M5.25 2H0.75C0.335786 2 0 2.33579 0 2.75V19.25C0 19.6642 0.335786 20 0.75 20H5.25C5.66421 20 6 19.6642 6 19.25V2.75C6 2.33579 5.66421 2 5.25 2Z" fill="#101820"/>
  <path d="M13.25 2H8.75C8.33579 2 8 2.33579 8 2.75V25.25C8 25.6642 8.33579 26 8.75 26H13.25C13.6642 26 14 25.6642 14 25.25V2.75C14 2.33579 13.6642 2 13.25 2Z" fill="#101820"/>
  <path d="M78.2335 20.5641C77.0029 20.5641 75.8848 20.3041 74.8795 19.7841C73.8915 19.2641 73.1028 18.5101 72.5135 17.5221C71.9415 16.5341 71.6555 15.3467 71.6555 13.9601V13.6221C71.6555 12.2354 71.9415 11.0567 72.5135 10.0861C73.1028 9.09807 73.8915 8.34407 74.8795 7.82407C75.8848 7.28673 77.0029 7.01807 78.2335 7.01807C79.4642 7.01807 80.5128 7.2434 81.3795 7.69407C82.2462 8.14473 82.9395 8.74273 83.4595 9.48807C83.9969 10.2334 84.3435 11.0567 84.4995 11.9581L81.8995 12.5041C81.8129 11.9321 81.6308 11.4121 81.3535 10.9441C81.0762 10.4761 80.6862 10.1034 80.1835 9.82607C79.6809 9.54873 79.0482 9.41007 78.2855 9.41007C77.5402 9.41007 76.8642 9.5834 76.2575 9.93007C75.6682 10.2594 75.2002 10.7447 74.8535 11.3861C74.5068 12.0101 74.3335 12.7727 74.3335 13.6741V13.9081C74.3335 14.8094 74.5068 15.5807 74.8535 16.2221C75.2002 16.8634 75.6682 17.3487 76.2575 17.6781C76.8642 18.0074 77.5402 18.1721 78.2855 18.1721C79.4122 18.1721 80.2702 17.8861 80.8595 17.3141C81.4488 16.7247 81.8215 15.9794 81.9775 15.0781L84.5775 15.6761C84.3695 16.5601 83.9969 17.3747 83.4595 18.1201C82.9395 18.8654 82.2462 19.4634 81.3795 19.9141C80.5128 20.3474 79.4642 20.5641 78.2335 20.5641Z" fill="#202E3C"/>
  <path d="M67.4473 20.2V7.382H70.1252V20.2H67.4473ZM68.7992 5.64C68.2792 5.64 67.8372 5.47533 67.4732 5.146C67.1266 4.79933 66.9532 4.35733 66.9532 3.82C66.9532 3.28267 67.1266 2.84933 67.4732 2.52C67.8372 2.17333 68.2792 2 68.7992 2C69.3366 2 69.7786 2.17333 70.1252 2.52C70.4719 2.84933 70.6452 3.28267 70.6452 3.82C70.6452 4.35733 70.4719 4.79933 70.1252 5.146C69.7786 5.47533 69.3366 5.64 68.7992 5.64Z" fill="#202E3C"/>
  <path d="M60.021 20.564C58.773 20.564 57.811 20.3387 57.135 19.888C56.4763 19.4373 55.9823 18.9347 55.653 18.38H55.237V20.2H52.611V2H55.289V9.124H55.705C55.913 8.77733 56.1903 8.448 56.537 8.136C56.8836 7.80667 57.343 7.538 57.915 7.33C58.487 7.122 59.189 7.018 60.021 7.018C61.0956 7.018 62.0836 7.278 62.985 7.798C63.8863 8.318 64.6056 9.072 65.143 10.06C65.6803 11.048 65.949 12.2267 65.949 13.596V13.986C65.949 15.3727 65.6716 16.56 65.117 17.548C64.5796 18.5187 63.8603 19.264 62.959 19.784C62.075 20.304 61.0956 20.564 60.021 20.564ZM59.241 18.224C60.4023 18.224 61.3556 17.8513 62.101 17.106C62.8636 16.3607 63.245 15.2947 63.245 13.908V13.674C63.245 12.3047 62.8723 11.2473 62.127 10.502C61.3816 9.75667 60.4196 9.384 59.241 9.384C58.097 9.384 57.1436 9.75667 56.381 10.502C55.6356 11.2473 55.263 12.3047 55.263 13.674V13.908C55.263 15.2947 55.6356 16.3607 56.381 17.106C57.1436 17.8513 58.097 18.224 59.241 18.224Z" fill="#202E3C"/>
  <path d="M43.3742 20.4341C42.4035 20.4341 41.5369 20.2174 40.7742 19.7841C40.0115 19.3507 39.4135 18.7354 38.9802 17.9381C38.5469 17.1407 38.3302 16.1874 38.3302 15.0781V7.38208H41.0082V14.8961C41.0082 16.0054 41.2855 16.8287 41.8402 17.3661C42.3949 17.8861 43.1662 18.1461 44.1542 18.1461C45.2462 18.1461 46.1215 17.7821 46.7802 17.0541C47.4562 16.3087 47.7942 15.2427 47.7942 13.8561V7.38208H50.4722V20.2001H47.8462V18.2761H47.4302C47.1875 18.7961 46.7542 19.2901 46.1302 19.7581C45.5062 20.2087 44.5875 20.4341 43.3742 20.4341Z" fill="#202E3C"/>
  <path d="M33.66 25.4001V18.4581H33.244C33.0533 18.8047 32.776 19.1427 32.412 19.4721C32.048 19.7841 31.58 20.0441 31.008 20.2521C30.4533 20.4601 29.76 20.5641 28.928 20.5641C27.8533 20.5641 26.8653 20.3041 25.964 19.7841C25.0627 19.2641 24.3433 18.5187 23.806 17.5481C23.2687 16.5601 23 15.3727 23 13.9861V13.5961C23 12.2094 23.2687 11.0307 23.806 10.0601C24.3607 9.07207 25.0887 8.31807 25.99 7.79807C26.8913 7.27807 27.8707 7.01807 28.928 7.01807C30.176 7.01807 31.1293 7.2434 31.788 7.69407C32.464 8.14473 32.9667 8.65607 33.296 9.22807H33.712V7.38207H36.338V25.4001H33.66ZM29.682 18.2241C30.8607 18.2241 31.8227 17.8514 32.568 17.1061C33.3133 16.3607 33.686 15.2947 33.686 13.9081V13.6741C33.686 12.3047 33.3047 11.2474 32.542 10.5021C31.7967 9.75673 30.8433 9.38407 29.682 9.38407C28.538 9.38407 27.5847 9.75673 26.822 10.5021C26.0767 11.2474 25.704 12.3047 25.704 13.6741V13.9081C25.704 15.2947 26.0767 16.3607 26.822 17.1061C27.5847 17.8514 28.538 18.2241 29.682 18.2241Z" fill="#202E3C"/>
</svg>
